<svg width="20" height="20" viewBox="0 0 20 20" fill="none" xmlns="http://www.w3.org/2000/svg">
<path d="M10 0C4.51131 0 0.0447977 4.46651 0.000354812 9.93299C-0.0218667 12.5996 1.00032 15.1328 2.88914 17.0216C4.75575 18.9327 7.26677 19.9771 9.93335 19.9993H10C15.4887 19.9993 19.9552 15.5328 19.9997 10.0663C20.0441 4.5554 15.5776 0.0444429 10 0ZM10 18.6438H9.93335C7.62232 18.6216 5.46683 17.7105 3.82245 16.0661C2.2225 14.444 1.33364 12.2662 1.35586 9.95522C1.37809 5.22204 5.26684 1.35551 10.0667 1.35551C14.8443 1.37773 18.6886 5.28871 18.6664 10.0663C18.6219 14.7995 14.7332 18.6438 10 18.6438Z" fill="black"/>
<path d="M16.3555 9.13307L10.4002 4.53323C10.178 4.35546 9.84463 4.35546 9.62242 4.53323L3.64485 9.13307C3.35597 9.35529 3.31152 9.75527 3.53374 10.0442C3.75595 10.333 4.15594 10.3775 4.44482 10.1553L5.40034 9.42195V14.0218C5.40034 14.3773 5.68922 14.6662 6.04476 14.6662H13.9778C14.3334 14.6662 14.6222 14.3773 14.6222 14.0218V9.42195L15.5778 10.1553C15.6889 10.2441 15.8444 10.2886 15.9778 10.2886C16.1778 10.2886 16.3555 10.1997 16.4889 10.0442C16.6888 9.75527 16.6222 9.35529 16.3555 9.13307ZM13.3334 13.3774H6.66697V8.42199L10.0002 5.86652L13.3334 8.42199V13.3774Z" fill="black"/>
</svg>
