<svg width="20" height="20" viewBox="0 0 20 20" fill="none" xmlns="http://www.w3.org/2000/svg">
<path d="M10 0C4.51131 0 0.0447977 4.46667 0.000354812 9.93333C-0.0218667 12.6 1.00032 15.1333 2.88914 17.0222C4.75575 18.9333 7.26677 19.9778 9.93335 20H10C15.4887 20 19.9552 15.5333 19.9997 10.0667C20.0441 4.55556 15.5776 0.0444444 10 0ZM9.95557 18.6444C7.84453 18.6222 5.86682 17.8667 4.31132 16.4889V16.4667V16.3556C4.31132 15.3111 4.62242 14.3333 5.20018 13.4667C5.73349 12.7111 6.44458 12.1111 7.26677 11.7333C8.00008 12.3556 8.9556 12.7333 10 12.7333C11.0444 12.7333 11.9999 12.3556 12.7333 11.7333C13.5554 12.1111 14.2665 12.7111 14.7998 13.4667C15.3776 14.3111 15.6887 15.3111 15.6887 16.3556V16.4667C14.1554 17.8 12.1555 18.6222 9.97779 18.6222H9.95557V18.6444ZM10 11.4889C8.37785 11.4889 7.04456 10.1556 7.04456 8.53333C7.04456 6.91111 8.37785 5.55556 10 5.55556C11.6222 5.55556 12.9555 6.88889 12.9555 8.51111C12.9555 10.1333 11.6222 11.4889 10 11.4889ZM16.8887 15.2222C16.7331 14.3333 16.3776 13.5111 15.8665 12.7556C15.2887 11.9111 14.511 11.2222 13.5999 10.7556C13.9999 10.1111 14.2443 9.33333 14.2443 8.53333C14.2443 6.2 12.3333 4.28889 10 4.28889C7.66676 4.28889 5.75571 6.2 5.75571 8.53333C5.75571 9.35556 5.97793 10.1111 6.40014 10.7556C5.51128 11.2222 4.73353 11.9111 4.13355 12.7556C3.62245 13.5111 3.26691 14.3333 3.11136 15.2222C1.95584 13.7111 1.33364 11.8667 1.35586 9.93333C1.37809 5.2 5.26684 1.33333 10.0667 1.33333C14.8443 1.35556 18.6886 5.26667 18.6664 10.0444C18.6442 12 17.9775 13.7778 16.8887 15.2222Z" fill="black"/>
</svg>
