<svg width="21" height="21" viewBox="0 0 21 21" fill="none" xmlns="http://www.w3.org/2000/svg">
<path d="M11.1564 5.35664C10.8897 5.08994 10.4674 5.08994 10.2007 5.35664C9.934 5.62334 9.934 6.04561 10.2007 6.31231L13.2233 9.33489H5.00007C4.62225 9.33489 4.33333 9.64604 4.33333 10.0016C4.33333 10.3572 4.64448 10.6684 5.00007 10.6684H13.2233L10.2229 13.691C10.0896 13.8243 10.0229 14.0021 10.0229 14.1577C10.0229 14.3355 10.0896 14.5133 10.2229 14.6244C10.4896 14.8911 10.9119 14.8911 11.1786 14.6244L15.3346 10.4684C15.5791 10.2239 15.5791 9.75717 15.3346 9.51269L11.1564 5.35664Z" fill="black"/>
<path d="M17.0243 2.88959C15.1351 1.00047 12.6015 -0.02187 9.93452 0.000354867C4.4672 0.0448046 0 4.51201 0 10.0016C0.0444498 15.58 4.5561 20.0472 10.0679 20.0027C15.5352 19.9583 20.0024 15.4911 20.0024 10.0016V9.93488C19.9802 7.26789 18.9356 4.75648 17.0243 2.88959ZM18.6467 10.0016C18.6467 14.7354 14.8018 18.6248 10.0679 18.6693C5.28952 18.6915 1.37794 14.8466 1.35572 10.0682C1.35572 5.26765 5.22285 1.3783 9.95675 1.35607C12.2681 1.33385 14.4462 2.22284 16.0686 3.82303C17.7132 5.46768 18.6244 7.62349 18.6467 9.93488V10.0016Z" fill="black"/>
</svg>
