<svg width="21" height="21" viewBox="0 0 21 21" fill="none" xmlns="http://www.w3.org/2000/svg">
<path d="M17.1344 2.97766C15.2388 1.05779 12.7086 0 10.0103 0C7.36072 0 4.86281 1.02554 2.9772 2.88736C1.0738 4.7663 0.0166696 7.27355 0.000211072 9.94739C-0.0169147 12.6212 1.00863 15.1416 2.8869 17.0443C4.78297 18.9649 7.31335 20.022 10.0117 20.022C12.6613 20.022 15.1592 18.9965 17.0454 17.1346C20.9728 13.2553 21.0124 6.90435 17.1344 2.97766ZM16.0969 16.1738C14.465 17.7852 12.3038 18.6724 10.0117 18.6724C7.67722 18.6724 5.48779 17.7576 3.84794 16.0966C2.22189 14.4504 1.33491 12.2694 1.34936 9.95607C1.36449 7.64276 2.27927 5.47357 3.92512 3.8484C5.55696 2.23702 7.71814 1.34982 10.0103 1.34982C12.3448 1.34982 14.5335 2.2646 16.1734 3.92624C19.5293 7.32359 19.4944 12.8176 16.0969 16.1738Z" fill="black"/>
<path d="M15.3254 9.33564H10.6854V4.69567C10.6854 4.32269 10.3836 4.02087 10.0106 4.02087C9.63766 4.02087 9.33585 4.32269 9.33585 4.69567V9.33564H4.69588C4.32289 9.33564 4.02108 9.63745 4.02108 10.0104C4.02108 10.3834 4.32289 10.6852 4.69588 10.6852H9.33585V15.3252C9.33585 15.6982 9.63766 16 10.0106 16C10.3836 16 10.6854 15.6982 10.6854 15.3252V10.6855H15.3254C15.6984 10.6855 16.0002 10.3836 16.0002 10.0107C16.0004 9.63745 15.6984 9.33564 15.3254 9.33564Z" fill="black"/>
</svg>
