<svg width="21" height="21" viewBox="0 0 21 21" fill="none" xmlns="http://www.w3.org/2000/svg">
<path d="M10.5004 0C4.73704 0 0.0470392 4.69 0.000372565 10.43C-0.0229608 13.23 1.05037 15.89 3.03371 17.8733C4.99371 19.88 7.63037 20.9767 10.4304 21H10.5004C16.2637 21 20.9537 16.31 21.0004 10.57C21.047 4.78333 16.357 0.0466667 10.5004 0ZM10.5004 19.5767H10.4304C8.00371 19.5533 5.74037 18.5967 4.01371 16.87C2.33371 15.1667 1.40037 12.88 1.42371 10.4533C1.44704 5.48333 5.53037 1.42333 10.5704 1.42333C15.587 1.44667 19.6237 5.55333 19.6004 10.57C19.5537 15.54 15.4704 19.5767 10.5004 19.5767Z" fill="black"/>
<path d="M10.5236 3.87305H10.4769C7.63024 3.87305 5.41357 6.04305 5.41357 8.79638C5.41357 13.0897 9.87024 16.7764 10.0569 16.9164C10.1736 17.0097 10.3369 17.0797 10.4769 17.0797H10.5236C10.6869 17.0797 10.8269 17.033 10.9436 16.9164C11.1302 16.753 15.5869 13.0664 15.5869 8.79638C15.5869 6.04305 13.3702 3.87305 10.5236 3.87305ZM10.5002 15.5397C10.1036 15.1664 9.45024 14.5364 8.82024 13.6964C7.11691 11.5264 6.76691 9.84638 6.76691 8.79638C6.76691 6.78971 8.40024 5.22638 10.4769 5.22638H10.5236C12.6002 5.22638 14.2336 6.81305 14.2336 8.79638C14.2336 11.7597 11.5502 14.5597 10.5002 15.5397Z" fill="black"/>
<path d="M10.5004 9.87003C11.1705 9.87003 11.7138 9.3268 11.7138 8.65669C11.7138 7.98659 11.1705 7.44336 10.5004 7.44336C9.83034 7.44336 9.28711 7.98659 9.28711 8.65669C9.28711 9.3268 9.83034 9.87003 10.5004 9.87003Z" fill="black"/>
</svg>
