<svg width="19" height="19" viewBox="0 0 19 19" fill="none" xmlns="http://www.w3.org/2000/svg">
<path d="M9.5 1.71238C12.0365 1.71238 12.3373 1.72188 13.3396 1.76779C15.9141 1.88496 17.1166 3.1065 17.2338 5.662C17.2797 6.66346 17.2884 6.96429 17.2884 9.50079C17.2884 12.0381 17.2789 12.3381 17.2338 13.3396C17.1158 15.8927 15.9165 17.1166 13.3396 17.2338C12.3373 17.2797 12.0381 17.2892 9.5 17.2892C6.9635 17.2892 6.66267 17.2797 5.66121 17.2338C3.08038 17.1158 1.88417 15.8888 1.767 13.3388C1.72108 12.3373 1.71158 12.0373 1.71158 9.5C1.71158 6.9635 1.72188 6.66346 1.767 5.66121C1.88496 3.1065 3.08433 1.88417 5.66121 1.767C6.66346 1.72188 6.9635 1.71238 9.5 1.71238V1.71238ZM9.5 0C6.91996 0 6.59696 0.0110833 5.58363 0.057C2.13354 0.215333 0.216125 2.12958 0.0577917 5.58283C0.0110833 6.59696 0 6.91996 0 9.5C0 12.08 0.0110833 12.4038 0.057 13.4172C0.215333 16.8673 2.12958 18.7847 5.58283 18.943C6.59696 18.9889 6.91996 19 9.5 19C12.08 19 12.4038 18.9889 13.4172 18.943C16.8641 18.7847 18.7863 16.8704 18.9422 13.4172C18.9889 12.4038 19 12.08 19 9.5C19 6.91996 18.9889 6.59696 18.943 5.58363C18.7878 2.13671 16.8712 0.216125 13.418 0.0577917C12.4038 0.0110833 12.08 0 9.5 0V0ZM9.5 4.62175C6.80596 4.62175 4.62175 6.80596 4.62175 9.5C4.62175 12.194 6.80596 14.379 9.5 14.379C12.194 14.379 14.3783 12.1948 14.3783 9.5C14.3783 6.80596 12.194 4.62175 9.5 4.62175ZM9.5 12.6667C7.75121 12.6667 6.33333 11.2496 6.33333 9.5C6.33333 7.75121 7.75121 6.33333 9.5 6.33333C11.2488 6.33333 12.6667 7.75121 12.6667 9.5C12.6667 11.2496 11.2488 12.6667 9.5 12.6667ZM14.5714 3.28938C13.9413 3.28938 13.4306 3.8 13.4306 4.42937C13.4306 5.05875 13.9413 5.56938 14.5714 5.56938C15.2008 5.56938 15.7106 5.05875 15.7106 4.42937C15.7106 3.8 15.2008 3.28938 14.5714 3.28938Z" fill="black"/>
</svg>
